<svg xmlns="http://www.w3.org/2000/svg" width="960" height="3218" viewBox="0 0 960 3218">
<style>text{font-family:Arial,sans-serif;font-size:12px}.t{font-size:16px;font-weight:700}.ax{stroke:#888;stroke-width:1}.bar{fill:#3568a8}.v{fill:#222}</style>
<text class="t" x="0" y="20">fnr (support-weighted)</text>
<line class="ax" x1="409" y1="34" x2="409" y2="3208"/>
<text x="0" y="57">xgboost_tau_0_1</text>
<rect class="bar" x="409" y="42" width="2" height="19" rx="2"/>
<text class="v" x="880" y="57">0.000</text>
<text x="0" y="85">gradient_boosting_tau_0_1</text>
<rect class="bar" x="409" y="70" width="2" height="19" rx="2"/>
<text class="v" x="880" y="85">0.000</text>
<text x="0" y="113">logistic_regression_tau_0_1</text>
<rect class="bar" x="409" y="98" width="2" height="19" rx="2"/>
<text class="v" x="880" y="113">0.001</text>
<text x="0" y="141">logistic_interactions_tau_0_1</text>
<rect class="bar" x="409" y="126" width="2" height="19" rx="2"/>
<text class="v" x="880" y="141">0.001</text>
<text x="0" y="169">random_forest_tau_0_1</text>
<rect class="bar" x="409" y="154" width="2" height="19" rx="2"/>
<text class="v" x="880" y="169">0.002</text>
<text x="0" y="197">decision_tree_tau_0_1</text>
<rect class="bar" x="409" y="182" width="2" height="19" rx="2"/>
<text class="v" x="880" y="197">0.002</text>
<text x="0" y="225">random_forest_tau_0_2</text>
<rect class="bar" x="409" y="210" width="6" height="19" rx="2"/>
<text class="v" x="880" y="225">0.014</text>
<text x="0" y="253">logistic_regression_tau_0_2</text>
<rect class="bar" x="409" y="238" width="7" height="19" rx="2"/>
<text class="v" x="880" y="253">0.016</text>
<text x="0" y="281">logistic_interactions_tau_0_2</text>
<rect class="bar" x="409" y="266" width="7" height="19" rx="2"/>
<text class="v" x="880" y="281">0.016</text>
<text x="0" y="309">xgboost_tau_0_2</text>
<rect class="bar" x="409" y="294" width="7" height="19" rx="2"/>
<text class="v" x="880" y="309">0.016</text>
<text x="0" y="337">gradient_boosting_tau_0_2</text>
<rect class="bar" x="409" y="322" width="7" height="19" rx="2"/>
<text class="v" x="880" y="337">0.016</text>
<text x="0" y="365">decision_tree_tau_0_2</text>
<rect class="bar" x="409" y="350" width="7" height="19" rx="2"/>
<text class="v" x="880" y="365">0.016</text>
<text x="0" y="393">xgboost_tau_0_3</text>
<rect class="bar" x="409" y="378" width="10" height="19" rx="2"/>
<text class="v" x="880" y="393">0.023</text>
<text x="0" y="421">logistic_regression_tau_0_3</text>
<rect class="bar" x="409" y="406" width="10" height="19" rx="2"/>
<text class="v" x="880" y="421">0.023</text>
<text x="0" y="449">dst_yager_fire_specificity_silence_sensitivity_tau_0_1</text>
<rect class="bar" x="409" y="434" width="11" height="19" rx="2"/>
<text class="v" x="880" y="449">0.026</text>
<text x="0" y="477">dst_dempster_fire_specificity_silence_sensitivity_tau_0_1</text>
<rect class="bar" x="409" y="462" width="11" height="19" rx="2"/>
<text class="v" x="880" y="477">0.026</text>
<text x="0" y="505">dst_pcr6_fire_specificity_silence_sensitivity_tau_0_1</text>
<rect class="bar" x="409" y="490" width="11" height="19" rx="2"/>
<text class="v" x="880" y="505">0.026</text>
<text x="0" y="533">random_forest_tau_0_3</text>
<rect class="bar" x="409" y="518" width="12" height="19" rx="2"/>
<text class="v" x="880" y="533">0.028</text>
<text x="0" y="561">decision_tree_tau_0_3</text>
<rect class="bar" x="409" y="546" width="12" height="19" rx="2"/>
<text class="v" x="880" y="561">0.028</text>
<text x="0" y="589">logistic_interactions_tau_0_3</text>
<rect class="bar" x="409" y="574" width="12" height="19" rx="2"/>
<text class="v" x="880" y="589">0.028</text>
<text x="0" y="617">gradient_boosting_tau_0_3</text>
<rect class="bar" x="409" y="602" width="12" height="19" rx="2"/>
<text class="v" x="880" y="617">0.028</text>
<text x="0" y="645">dst_yager_fire_specificity_silence_sensitivity_tau_0_2</text>
<rect class="bar" x="409" y="630" width="50" height="19" rx="2"/>
<text class="v" x="880" y="645">0.110</text>
<text x="0" y="673">dst_pcr6_fire_specificity_silence_sensitivity_tau_0_2</text>
<rect class="bar" x="409" y="658" width="50" height="19" rx="2"/>
<text class="v" x="880" y="673">0.110</text>
<text x="0" y="701">dst_dempster_fire_specificity_silence_sensitivity_tau_0_2</text>
<rect class="bar" x="409" y="686" width="50" height="19" rx="2"/>
<text class="v" x="880" y="701">0.110</text>
<text x="0" y="729">dst_yager_fire_specificity_silence_sensitivity_tau_0_3</text>
<rect class="bar" x="409" y="714" width="76" height="19" rx="2"/>
<text class="v" x="880" y="729">0.165</text>
<text x="0" y="757">dst_dempster_fire_specificity_silence_sensitivity_tau_0_3</text>
<rect class="bar" x="409" y="742" width="76" height="19" rx="2"/>
<text class="v" x="880" y="757">0.165</text>
<text x="0" y="785">dst_pcr6_fire_specificity_silence_sensitivity_tau_0_3</text>
<rect class="bar" x="409" y="770" width="76" height="19" rx="2"/>
<text class="v" x="880" y="785">0.165</text>
<text x="0" y="813">xgboost_tau_0_4</text>
<rect class="bar" x="409" y="798" width="77" height="19" rx="2"/>
<text class="v" x="880" y="813">0.168</text>
<text x="0" y="841">logistic_regression_tau_0_4</text>
<rect class="bar" x="409" y="826" width="82" height="19" rx="2"/>
<text class="v" x="880" y="841">0.180</text>
<text x="0" y="869">decision_tree_tau_0_4</text>
<rect class="bar" x="409" y="854" width="86" height="19" rx="2"/>
<text class="v" x="880" y="869">0.187</text>
<text x="0" y="897">gradient_boosting_tau_0_4</text>
<rect class="bar" x="409" y="882" width="86" height="19" rx="2"/>
<text class="v" x="880" y="897">0.187</text>
<text x="0" y="925">logistic_interactions_tau_0_4</text>
<rect class="bar" x="409" y="910" width="86" height="19" rx="2"/>
<text class="v" x="880" y="925">0.187</text>
<text x="0" y="953">random_forest_tau_0_4</text>
<rect class="bar" x="409" y="938" width="88" height="19" rx="2"/>
<text class="v" x="880" y="953">0.192</text>
<text x="0" y="981">dst_yager_fire_specificity_silence_sensitivity_tau_0_4</text>
<rect class="bar" x="409" y="966" width="93" height="19" rx="2"/>
<text class="v" x="880" y="981">0.203</text>
<text x="0" y="1009">dst_pcr6_fire_specificity_silence_sensitivity_tau_0_4</text>
<rect class="bar" x="409" y="994" width="93" height="19" rx="2"/>
<text class="v" x="880" y="1009">0.203</text>
<text x="0" y="1037">dst_dempster_fire_specificity_silence_sensitivity_tau_0_4</text>
<rect class="bar" x="409" y="1022" width="93" height="19" rx="2"/>
<text class="v" x="880" y="1037">0.203</text>
<text x="0" y="1065">random_forest_tau_0_5</text>
<rect class="bar" x="409" y="1050" width="189" height="19" rx="2"/>
<text class="v" x="880" y="1065">0.411</text>
<text x="0" y="1093">logistic_interactions_tau_0_5</text>
<rect class="bar" x="409" y="1078" width="196" height="19" rx="2"/>
<text class="v" x="880" y="1093">0.426</text>
<text x="0" y="1121">logistic_regression_tau_0_5</text>
<rect class="bar" x="409" y="1106" width="196" height="19" rx="2"/>
<text class="v" x="880" y="1121">0.427</text>
<text x="0" y="1149">gradient_boosting_tau_0_5</text>
<rect class="bar" x="409" y="1134" width="201" height="19" rx="2"/>
<text class="v" x="880" y="1149">0.437</text>
<text x="0" y="1177">decision_tree_tau_0_5</text>
<rect class="bar" x="409" y="1162" width="202" height="19" rx="2"/>
<text class="v" x="880" y="1177">0.439</text>
<text x="0" y="1205">xgboost_tau_0_5</text>
<rect class="bar" x="409" y="1190" width="209" height="19" rx="2"/>
<text class="v" x="880" y="1205">0.455</text>
<text x="0" y="1233">naive_bayes_tau_0_1</text>
<rect class="bar" x="409" y="1218" width="257" height="19" rx="2"/>
<text class="v" x="880" y="1233">0.558</text>
<text x="0" y="1261">bks_tau_0_1</text>
<rect class="bar" x="409" y="1246" width="262" height="19" rx="2"/>
<text class="v" x="880" y="1261">0.569</text>
<text x="0" y="1289">dst_yager_fire_specificity_silence_sensitivity_tau_0_5</text>
<rect class="bar" x="409" y="1274" width="307" height="19" rx="2"/>
<text class="v" x="880" y="1289">0.668</text>
<text x="0" y="1317">dst_pcr6_fire_specificity_silence_sensitivity_tau_0_5</text>
<rect class="bar" x="409" y="1302" width="307" height="19" rx="2"/>
<text class="v" x="880" y="1317">0.668</text>
<text x="0" y="1345">dst_dempster_fire_specificity_silence_sensitivity_tau_0_5</text>
<rect class="bar" x="409" y="1330" width="307" height="19" rx="2"/>
<text class="v" x="880" y="1345">0.668</text>
<text x="0" y="1373">or_1_of_3</text>
<rect class="bar" x="409" y="1358" width="329" height="19" rx="2"/>
<text class="v" x="880" y="1373">0.715</text>
<text x="0" y="1401">dst_dempster_fire_specificity_silence_sensitivity_tau_0_7</text>
<rect class="bar" x="409" y="1386" width="329" height="19" rx="2"/>
<text class="v" x="880" y="1401">0.715</text>
<text x="0" y="1429">dst_dempster_fire_specificity_silence_sensitivity_tau_0_6</text>
<rect class="bar" x="409" y="1414" width="329" height="19" rx="2"/>
<text class="v" x="880" y="1429">0.715</text>
<text x="0" y="1457">weighted_fire_specificity_silence_sensitivity_tau_0_2</text>
<rect class="bar" x="409" y="1442" width="329" height="19" rx="2"/>
<text class="v" x="880" y="1457">0.715</text>
<text x="0" y="1485">weighted_fire_specificity_silence_sensitivity_tau_0_1</text>
<rect class="bar" x="409" y="1470" width="329" height="19" rx="2"/>
<text class="v" x="880" y="1485">0.715</text>
<text x="0" y="1513">weighted_fire_specificity_silence_sensitivity_tau_0_5</text>
<rect class="bar" x="409" y="1498" width="329" height="19" rx="2"/>
<text class="v" x="880" y="1513">0.715</text>
<text x="0" y="1541">weighted_fire_specificity_silence_sensitivity_tau_0_4</text>
<rect class="bar" x="409" y="1526" width="329" height="19" rx="2"/>
<text class="v" x="880" y="1541">0.715</text>
<text x="0" y="1569">weighted_fire_specificity_silence_sensitivity_tau_0_3</text>
<rect class="bar" x="409" y="1554" width="329" height="19" rx="2"/>
<text class="v" x="880" y="1569">0.715</text>
<text x="0" y="1597">dst_pcr6_fire_specificity_silence_sensitivity_tau_0_6</text>
<rect class="bar" x="409" y="1582" width="329" height="19" rx="2"/>
<text class="v" x="880" y="1597">0.715</text>
<text x="0" y="1625">dst_yager_fire_specificity_silence_sensitivity_tau_0_6</text>
<rect class="bar" x="409" y="1610" width="329" height="19" rx="2"/>
<text class="v" x="880" y="1625">0.715</text>
<text x="0" y="1653">naive_bayes_tau_0_2</text>
<rect class="bar" x="409" y="1638" width="331" height="19" rx="2"/>
<text class="v" x="880" y="1653">0.720</text>
<text x="0" y="1681">weighted_fire_specificity_silence_sensitivity_tau_0_6</text>
<rect class="bar" x="409" y="1666" width="333" height="19" rx="2"/>
<text class="v" x="880" y="1681">0.723</text>
<text x="0" y="1709">dst_dempster_fire_specificity_silence_sensitivity_tau_0_8</text>
<rect class="bar" x="409" y="1694" width="333" height="19" rx="2"/>
<text class="v" x="880" y="1709">0.724</text>
<text x="0" y="1737">dst_pcr6_fire_specificity_silence_sensitivity_tau_0_7</text>
<rect class="bar" x="409" y="1722" width="334" height="19" rx="2"/>
<text class="v" x="880" y="1737">0.725</text>
<text x="0" y="1765">dst_yager_fire_specificity_silence_sensitivity_tau_0_7</text>
<rect class="bar" x="409" y="1750" width="335" height="19" rx="2"/>
<text class="v" x="880" y="1765">0.728</text>
<text x="0" y="1793">xgboost_tau_0_6</text>
<rect class="bar" x="409" y="1778" width="336" height="19" rx="2"/>
<text class="v" x="880" y="1793">0.729</text>
<text x="0" y="1821">random_forest_tau_0_6</text>
<rect class="bar" x="409" y="1806" width="336" height="19" rx="2"/>
<text class="v" x="880" y="1821">0.730</text>
<text x="0" y="1849">gradient_boosting_tau_0_6</text>
<rect class="bar" x="409" y="1834" width="336" height="19" rx="2"/>
<text class="v" x="880" y="1849">0.730</text>
<text x="0" y="1877">xgboost_tau_0_7</text>
<rect class="bar" x="409" y="1862" width="336" height="19" rx="2"/>
<text class="v" x="880" y="1877">0.730</text>
<text x="0" y="1905">logistic_interactions_tau_0_6</text>
<rect class="bar" x="409" y="1890" width="336" height="19" rx="2"/>
<text class="v" x="880" y="1905">0.730</text>
<text x="0" y="1933">decision_tree_tau_0_6</text>
<rect class="bar" x="409" y="1918" width="336" height="19" rx="2"/>
<text class="v" x="880" y="1933">0.730</text>
<text x="0" y="1961">decision_tree_tau_0_7</text>
<rect class="bar" x="409" y="1946" width="336" height="19" rx="2"/>
<text class="v" x="880" y="1961">0.730</text>
<text x="0" y="1989">random_forest_tau_0_7</text>
<rect class="bar" x="409" y="1974" width="336" height="19" rx="2"/>
<text class="v" x="880" y="1989">0.730</text>
<text x="0" y="2017">logistic_regression_tau_0_7</text>
<rect class="bar" x="409" y="2002" width="336" height="19" rx="2"/>
<text class="v" x="880" y="2017">0.730</text>
<text x="0" y="2045">logistic_regression_tau_0_6</text>
<rect class="bar" x="409" y="2030" width="336" height="19" rx="2"/>
<text class="v" x="880" y="2045">0.730</text>
<text x="0" y="2073">logistic_interactions_tau_0_7</text>
<rect class="bar" x="409" y="2058" width="336" height="19" rx="2"/>
<text class="v" x="880" y="2073">0.730</text>
<text x="0" y="2101">gradient_boosting_tau_0_7</text>
<rect class="bar" x="409" y="2086" width="336" height="19" rx="2"/>
<text class="v" x="880" y="2101">0.730</text>
<text x="0" y="2129">logistic_regression_tau_0_8</text>
<rect class="bar" x="409" y="2114" width="336" height="19" rx="2"/>
<text class="v" x="880" y="2129">0.730</text>
<text x="0" y="2157">bks_tau_0_2</text>
<rect class="bar" x="409" y="2142" width="336" height="19" rx="2"/>
<text class="v" x="880" y="2157">0.731</text>
<text x="0" y="2185">naive_bayes_tau_0_3</text>
<rect class="bar" x="409" y="2170" width="336" height="19" rx="2"/>
<text class="v" x="880" y="2185">0.731</text>
<text x="0" y="2213">bks_tau_0_3</text>
<rect class="bar" x="409" y="2198" width="337" height="19" rx="2"/>
<text class="v" x="880" y="2213">0.732</text>
<text x="0" y="2241">dst_dempster_fire_specificity_silence_sensitivity_tau_0_9</text>
<rect class="bar" x="409" y="2226" width="347" height="19" rx="2"/>
<text class="v" x="880" y="2241">0.753</text>
<text x="0" y="2269">dst_pcr6_fire_specificity_silence_sensitivity_tau_0_8</text>
<rect class="bar" x="409" y="2254" width="347" height="19" rx="2"/>
<text class="v" x="880" y="2269">0.755</text>
<text x="0" y="2297">naive_bayes_tau_0_4</text>
<rect class="bar" x="409" y="2282" width="348" height="19" rx="2"/>
<text class="v" x="880" y="2297">0.756</text>
<text x="0" y="2325">decision_tree_tau_0_8</text>
<rect class="bar" x="409" y="2310" width="349" height="19" rx="2"/>
<text class="v" x="880" y="2325">0.759</text>
<text x="0" y="2353">weighted_fire_specificity_silence_sensitivity_tau_0_7</text>
<rect class="bar" x="409" y="2338" width="349" height="19" rx="2"/>
<text class="v" x="880" y="2353">0.759</text>
<text x="0" y="2381">gradient_boosting_tau_0_8</text>
<rect class="bar" x="409" y="2366" width="350" height="19" rx="2"/>
<text class="v" x="880" y="2381">0.759</text>
<text x="0" y="2409">logistic_interactions_tau_0_8</text>
<rect class="bar" x="409" y="2394" width="350" height="19" rx="2"/>
<text class="v" x="880" y="2409">0.760</text>
<text x="0" y="2437">xgboost_tau_0_8</text>
<rect class="bar" x="409" y="2422" width="350" height="19" rx="2"/>
<text class="v" x="880" y="2437">0.760</text>
<text x="0" y="2465">random_forest_tau_0_8</text>
<rect class="bar" x="409" y="2450" width="350" height="19" rx="2"/>
<text class="v" x="880" y="2465">0.761</text>
<text x="0" y="2493">tool:semgrep</text>
<rect class="bar" x="409" y="2478" width="351" height="19" rx="2"/>
<text class="v" x="880" y="2493">0.763</text>
<text x="0" y="2521">decision_tree_tau_0_9</text>
<rect class="bar" x="409" y="2506" width="352" height="19" rx="2"/>
<text class="v" x="880" y="2521">0.765</text>
<text x="0" y="2549">random_forest_tau_0_9</text>
<rect class="bar" x="409" y="2534" width="355" height="19" rx="2"/>
<text class="v" x="880" y="2549">0.771</text>
<text x="0" y="2577">dst_pcr6_fire_specificity_silence_sensitivity_tau_0_9</text>
<rect class="bar" x="409" y="2562" width="356" height="19" rx="2"/>
<text class="v" x="880" y="2577">0.774</text>
<text x="0" y="2605">dst_yager_fire_specificity_silence_sensitivity_tau_0_8</text>
<rect class="bar" x="409" y="2590" width="356" height="19" rx="2"/>
<text class="v" x="880" y="2605">0.774</text>
<text x="0" y="2633">weighted_fire_specificity_silence_sensitivity_tau_0_8</text>
<rect class="bar" x="409" y="2618" width="358" height="19" rx="2"/>
<text class="v" x="880" y="2633">0.779</text>
<text x="0" y="2661">bks_tau_0_4</text>
<rect class="bar" x="409" y="2646" width="363" height="19" rx="2"/>
<text class="v" x="880" y="2661">0.788</text>
<text x="0" y="2689">logistic_interactions_tau_0_9</text>
<rect class="bar" x="409" y="2674" width="363" height="19" rx="2"/>
<text class="v" x="880" y="2689">0.789</text>
<text x="0" y="2717">dst_yager_fire_specificity_silence_sensitivity_tau_0_9</text>
<rect class="bar" x="409" y="2702" width="366" height="19" rx="2"/>
<text class="v" x="880" y="2717">0.794</text>
<text x="0" y="2745">weighted_fire_specificity_silence_sensitivity_tau_0_9</text>
<rect class="bar" x="409" y="2730" width="366" height="19" rx="2"/>
<text class="v" x="880" y="2745">0.794</text>
<text x="0" y="2773">tool:codeql</text>
<rect class="bar" x="409" y="2758" width="367" height="19" rx="2"/>
<text class="v" x="880" y="2773">0.797</text>
<text x="0" y="2801">naive_bayes_tau_0_5</text>
<rect class="bar" x="409" y="2786" width="370" height="19" rx="2"/>
<text class="v" x="880" y="2801">0.804</text>
<text x="0" y="2829">gradient_boosting_tau_0_9</text>
<rect class="bar" x="409" y="2814" width="371" height="19" rx="2"/>
<text class="v" x="880" y="2829">0.805</text>
<text x="0" y="2857">naive_bayes_tau_0_6</text>
<rect class="bar" x="409" y="2842" width="375" height="19" rx="2"/>
<text class="v" x="880" y="2857">0.814</text>
<text x="0" y="2885">bks_tau_0_5</text>
<rect class="bar" x="409" y="2870" width="375" height="19" rx="2"/>
<text class="v" x="880" y="2885">0.815</text>
<text x="0" y="2913">bks_tau_0_6</text>
<rect class="bar" x="409" y="2898" width="383" height="19" rx="2"/>
<text class="v" x="880" y="2913">0.832</text>
<text x="0" y="2941">naive_bayes_tau_0_7</text>
<rect class="bar" x="409" y="2926" width="388" height="19" rx="2"/>
<text class="v" x="880" y="2941">0.843</text>
<text x="0" y="2969">traditional_2_of_3</text>
<rect class="bar" x="409" y="2954" width="388" height="19" rx="2"/>
<text class="v" x="880" y="2969">0.843</text>
<text x="0" y="2997">logistic_regression_tau_0_9</text>
<rect class="bar" x="409" y="2982" width="396" height="19" rx="2"/>
<text class="v" x="880" y="2997">0.861</text>
<text x="0" y="3025">naive_bayes_tau_0_8</text>
<rect class="bar" x="409" y="3010" width="398" height="19" rx="2"/>
<text class="v" x="880" y="3025">0.864</text>
<text x="0" y="3053">xgboost_tau_0_9</text>
<rect class="bar" x="409" y="3038" width="403" height="19" rx="2"/>
<text class="v" x="880" y="3053">0.876</text>
<text x="0" y="3081">naive_bayes_tau_0_9</text>
<rect class="bar" x="409" y="3066" width="436" height="19" rx="2"/>
<text class="v" x="880" y="3081">0.947</text>
<text x="0" y="3109">bks_tau_0_7</text>
<rect class="bar" x="409" y="3094" width="438" height="19" rx="2"/>
<text class="v" x="880" y="3109">0.952</text>
<text x="0" y="3137">bks_tau_0_8</text>
<rect class="bar" x="409" y="3122" width="439" height="19" rx="2"/>
<text class="v" x="880" y="3137">0.953</text>
<text x="0" y="3165">bks_tau_0_9</text>
<rect class="bar" x="409" y="3150" width="439" height="19" rx="2"/>
<text class="v" x="880" y="3165">0.954</text>
<text x="0" y="3193">tool:joern</text>
<rect class="bar" x="409" y="3178" width="459" height="19" rx="2"/>
<text class="v" x="880" y="3193">0.997</text>
</svg>