<svg xmlns="http://www.w3.org/2000/svg" width="960" height="642" viewBox="0 0 960 642">
<style>text{font-family:Arial,sans-serif;font-size:12px}.t{font-size:16px;font-weight:700}.ax{stroke:#888;stroke-width:1}.bar{fill:#3568a8}.v{fill:#222}</style>
<text class="t" x="0" y="20">npv best variant per strategy (support-weighted)</text>
<line class="ax" x1="367" y1="34" x2="367" y2="632"/>
<text x="0" y="57">bks (tau=0.1)</text>
<rect class="bar" x="367" y="42" width="484" height="19" rx="2"/>
<text class="v" x="880" y="57">0.964</text>
<text x="0" y="85">or_1_of_6</text>
<rect class="bar" x="367" y="70" width="461" height="19" rx="2"/>
<text class="v" x="880" y="85">0.918</text>
<text x="0" y="113">dst_dempster (tau=0.6, cal=specificity/sensitivity)</text>
<rect class="bar" x="367" y="98" width="461" height="19" rx="2"/>
<text class="v" x="880" y="113">0.918</text>
<text x="0" y="141">dst_pcr6 (tau=0.6, cal=specificity/sensitivity)</text>
<rect class="bar" x="367" y="126" width="461" height="19" rx="2"/>
<text class="v" x="880" y="141">0.918</text>
<text x="0" y="169">dst_yager (tau=0.6, cal=specificity/sensitivity)</text>
<rect class="bar" x="367" y="154" width="461" height="19" rx="2"/>
<text class="v" x="880" y="169">0.918</text>
<text x="0" y="197">weighted (tau=0.1, cal=specificity/sensitivity)</text>
<rect class="bar" x="367" y="182" width="461" height="19" rx="2"/>
<text class="v" x="880" y="197">0.918</text>
<text x="0" y="225">naive_bayes (tau=0.2)</text>
<rect class="bar" x="367" y="210" width="461" height="19" rx="2"/>
<text class="v" x="880" y="225">0.918</text>
<text x="0" y="253">tool:flawfinder</text>
<rect class="bar" x="367" y="238" width="461" height="19" rx="2"/>
<text class="v" x="880" y="253">0.918</text>
<text x="0" y="281">decision_tree (tau=0.5)</text>
<rect class="bar" x="367" y="266" width="459" height="19" rx="2"/>
<text class="v" x="880" y="281">0.913</text>
<text x="0" y="309">gradient_boosting (tau=0.6)</text>
<rect class="bar" x="367" y="294" width="457" height="19" rx="2"/>
<text class="v" x="880" y="309">0.910</text>
<text x="0" y="337">xgboost (tau=0.6)</text>
<rect class="bar" x="367" y="322" width="457" height="19" rx="2"/>
<text class="v" x="880" y="337">0.910</text>
<text x="0" y="365">logistic_regression (tau=0.6)</text>
<rect class="bar" x="367" y="350" width="457" height="19" rx="2"/>
<text class="v" x="880" y="365">0.910</text>
<text x="0" y="393">logistic_interactions (tau=0.6)</text>
<rect class="bar" x="367" y="378" width="457" height="19" rx="2"/>
<text class="v" x="880" y="393">0.910</text>
<text x="0" y="421">random_forest (tau=0.6)</text>
<rect class="bar" x="367" y="406" width="457" height="19" rx="2"/>
<text class="v" x="880" y="421">0.910</text>
<text x="0" y="449">traditional_2_of_6</text>
<rect class="bar" x="367" y="434" width="457" height="19" rx="2"/>
<text class="v" x="880" y="449">0.909</text>
<text x="0" y="477">tool:ikos</text>
<rect class="bar" x="367" y="462" width="457" height="19" rx="2"/>
<text class="v" x="880" y="477">0.909</text>
<text x="0" y="505">tool:codeql</text>
<rect class="bar" x="367" y="490" width="456" height="19" rx="2"/>
<text class="v" x="880" y="505">0.908</text>
<text x="0" y="533">tool:cppcheck</text>
<rect class="bar" x="367" y="518" width="456" height="19" rx="2"/>
<text class="v" x="880" y="533">0.908</text>
<text x="0" y="561">traditional_3_of_6</text>
<rect class="bar" x="367" y="546" width="456" height="19" rx="2"/>
<text class="v" x="880" y="561">0.908</text>
<text x="0" y="589">tool:semgrep</text>
<rect class="bar" x="367" y="574" width="456" height="19" rx="2"/>
<text class="v" x="880" y="589">0.908</text>
<text x="0" y="617">tool:joern</text>
<rect class="bar" x="367" y="602" width="456" height="19" rx="2"/>
<text class="v" x="880" y="617">0.908</text>
</svg>