<svg xmlns="http://www.w3.org/2000/svg" width="960" height="642" viewBox="0 0 960 642">
<style>text{font-family:Arial,sans-serif;font-size:12px}.t{font-size:16px;font-weight:700}.ax{stroke:#888;stroke-width:1}.bar{fill:#3568a8}.v{fill:#222}</style>
<text class="t" x="0" y="20">precision best variant per strategy (support-weighted)</text>
<line class="ax" x1="367" y1="34" x2="367" y2="632"/>
<text x="0" y="57">random_forest (tau=0.8)</text>
<rect class="bar" x="367" y="42" width="226" height="19" rx="2"/>
<text class="v" x="880" y="57">0.450</text>
<text x="0" y="85">bks (tau=0.7)</text>
<rect class="bar" x="367" y="70" width="207" height="19" rx="2"/>
<text class="v" x="880" y="85">0.413</text>
<text x="0" y="113">naive_bayes (tau=0.8)</text>
<rect class="bar" x="367" y="98" width="192" height="19" rx="2"/>
<text class="v" x="880" y="113">0.382</text>
<text x="0" y="141">gradient_boosting (tau=0.8)</text>
<rect class="bar" x="367" y="126" width="190" height="19" rx="2"/>
<text class="v" x="880" y="141">0.379</text>
<text x="0" y="169">decision_tree (tau=0.8)</text>
<rect class="bar" x="367" y="154" width="189" height="19" rx="2"/>
<text class="v" x="880" y="169">0.376</text>
<text x="0" y="197">xgboost (tau=0.8)</text>
<rect class="bar" x="367" y="182" width="189" height="19" rx="2"/>
<text class="v" x="880" y="197">0.376</text>
<text x="0" y="225">logistic_interactions (tau=0.9)</text>
<rect class="bar" x="367" y="210" width="183" height="19" rx="2"/>
<text class="v" x="880" y="225">0.365</text>
<text x="0" y="253">logistic_regression (tau=0.9)</text>
<rect class="bar" x="367" y="238" width="156" height="19" rx="2"/>
<text class="v" x="880" y="253">0.311</text>
<text x="0" y="281">tool:ikos</text>
<rect class="bar" x="367" y="266" width="138" height="19" rx="2"/>
<text class="v" x="880" y="281">0.276</text>
<text x="0" y="309">tool:cppcheck</text>
<rect class="bar" x="367" y="294" width="96" height="19" rx="2"/>
<text class="v" x="880" y="309">0.192</text>
<text x="0" y="337">traditional_3_of_6</text>
<rect class="bar" x="367" y="322" width="94" height="19" rx="2"/>
<text class="v" x="880" y="337">0.188</text>
<text x="0" y="365">tool:codeql</text>
<rect class="bar" x="367" y="350" width="91" height="19" rx="2"/>
<text class="v" x="880" y="365">0.181</text>
<text x="0" y="393">dst_dempster (tau=0.9, cal=specificity/sensitivity)</text>
<rect class="bar" x="367" y="378" width="90" height="19" rx="2"/>
<text class="v" x="880" y="393">0.179</text>
<text x="0" y="421">dst_pcr6 (tau=0.9, cal=specificity/sensitivity)</text>
<rect class="bar" x="367" y="406" width="86" height="19" rx="2"/>
<text class="v" x="880" y="421">0.172</text>
<text x="0" y="449">dst_yager (tau=0.9, cal=specificity/sensitivity)</text>
<rect class="bar" x="367" y="434" width="81" height="19" rx="2"/>
<text class="v" x="880" y="449">0.162</text>
<text x="0" y="477">traditional_2_of_6</text>
<rect class="bar" x="367" y="462" width="74" height="19" rx="2"/>
<text class="v" x="880" y="477">0.148</text>
<text x="0" y="505">or_1_of_6</text>
<rect class="bar" x="367" y="490" width="71" height="19" rx="2"/>
<text class="v" x="880" y="505">0.142</text>
<text x="0" y="533">tool:semgrep</text>
<rect class="bar" x="367" y="518" width="71" height="19" rx="2"/>
<text class="v" x="880" y="533">0.141</text>
<text x="0" y="561">weighted (tau=0.1, cal=specificity/sensitivity)</text>
<rect class="bar" x="367" y="546" width="70" height="19" rx="2"/>
<text class="v" x="880" y="561">0.139</text>
<text x="0" y="589">tool:flawfinder</text>
<rect class="bar" x="367" y="574" width="64" height="19" rx="2"/>
<text class="v" x="880" y="589">0.129</text>
<text x="0" y="617">tool:joern</text>
<rect class="bar" x="367" y="602" width="52" height="19" rx="2"/>
<text class="v" x="880" y="617">0.105</text>
</svg>