<svg xmlns="http://www.w3.org/2000/svg" width="960" height="3330" viewBox="0 0 960 3330">
<style>text{font-family:Arial,sans-serif;font-size:12px}.t{font-size:16px;font-weight:700}.ax{stroke:#888;stroke-width:1}.bar{fill:#3568a8}.v{fill:#222}</style>
<text class="t" x="0" y="20">fpr (support-weighted)</text>
<line class="ax" x1="409" y1="34" x2="409" y2="3320"/>
<text x="0" y="57">bks_tau_0_8</text>
<rect class="bar" x="409" y="42" width="2" height="19" rx="2"/>
<text class="v" x="880" y="57">0.000</text>
<text x="0" y="85">bks_tau_0_9</text>
<rect class="bar" x="409" y="70" width="2" height="19" rx="2"/>
<text class="v" x="880" y="85">0.000</text>
<text x="0" y="113">naive_bayes_tau_0_9</text>
<rect class="bar" x="409" y="98" width="2" height="19" rx="2"/>
<text class="v" x="880" y="113">0.000</text>
<text x="0" y="141">naive_bayes_tau_0_8</text>
<rect class="bar" x="409" y="126" width="2" height="19" rx="2"/>
<text class="v" x="880" y="141">0.000</text>
<text x="0" y="169">bks_tau_0_7</text>
<rect class="bar" x="409" y="154" width="2" height="19" rx="2"/>
<text class="v" x="880" y="169">0.000</text>
<text x="0" y="197">bks_tau_0_6</text>
<rect class="bar" x="409" y="182" width="2" height="19" rx="2"/>
<text class="v" x="880" y="197">0.000</text>
<text x="0" y="225">random_forest_tau_0_9</text>
<rect class="bar" x="409" y="210" width="2" height="19" rx="2"/>
<text class="v" x="880" y="225">0.000</text>
<text x="0" y="253">naive_bayes_tau_0_7</text>
<rect class="bar" x="409" y="238" width="2" height="19" rx="2"/>
<text class="v" x="880" y="253">0.000</text>
<text x="0" y="281">xgboost_tau_0_9</text>
<rect class="bar" x="409" y="266" width="2" height="19" rx="2"/>
<text class="v" x="880" y="281">0.000</text>
<text x="0" y="309">gradient_boosting_tau_0_9</text>
<rect class="bar" x="409" y="294" width="2" height="19" rx="2"/>
<text class="v" x="880" y="309">0.000</text>
<text x="0" y="337">logistic_regression_tau_0_9</text>
<rect class="bar" x="409" y="322" width="2" height="19" rx="2"/>
<text class="v" x="880" y="337">0.000</text>
<text x="0" y="365">bks_tau_0_5</text>
<rect class="bar" x="409" y="350" width="2" height="19" rx="2"/>
<text class="v" x="880" y="365">0.001</text>
<text x="0" y="393">random_forest_tau_0_8</text>
<rect class="bar" x="409" y="378" width="2" height="19" rx="2"/>
<text class="v" x="880" y="393">0.001</text>
<text x="0" y="421">bks_tau_0_4</text>
<rect class="bar" x="409" y="406" width="2" height="19" rx="2"/>
<text class="v" x="880" y="421">0.001</text>
<text x="0" y="449">logistic_interactions_tau_0_9</text>
<rect class="bar" x="409" y="434" width="2" height="19" rx="2"/>
<text class="v" x="880" y="449">0.001</text>
<text x="0" y="477">decision_tree_tau_0_9</text>
<rect class="bar" x="409" y="462" width="2" height="19" rx="2"/>
<text class="v" x="880" y="477">0.001</text>
<text x="0" y="505">decision_tree_tau_0_8</text>
<rect class="bar" x="409" y="490" width="2" height="19" rx="2"/>
<text class="v" x="880" y="505">0.001</text>
<text x="0" y="533">xgboost_tau_0_8</text>
<rect class="bar" x="409" y="518" width="2" height="19" rx="2"/>
<text class="v" x="880" y="533">0.001</text>
<text x="0" y="561">gradient_boosting_tau_0_8</text>
<rect class="bar" x="409" y="546" width="2" height="19" rx="2"/>
<text class="v" x="880" y="561">0.001</text>
<text x="0" y="589">traditional_3_of_6</text>
<rect class="bar" x="409" y="574" width="2" height="19" rx="2"/>
<text class="v" x="880" y="589">0.001</text>
<text x="0" y="617">naive_bayes_tau_0_6</text>
<rect class="bar" x="409" y="602" width="2" height="19" rx="2"/>
<text class="v" x="880" y="617">0.001</text>
<text x="0" y="645">logistic_interactions_tau_0_8</text>
<rect class="bar" x="409" y="630" width="2" height="19" rx="2"/>
<text class="v" x="880" y="645">0.001</text>
<text x="0" y="673">tool:ikos</text>
<rect class="bar" x="409" y="658" width="2" height="19" rx="2"/>
<text class="v" x="880" y="673">0.001</text>
<text x="0" y="701">logistic_regression_tau_0_8</text>
<rect class="bar" x="409" y="686" width="2" height="19" rx="2"/>
<text class="v" x="880" y="701">0.001</text>
<text x="0" y="729">naive_bayes_tau_0_5</text>
<rect class="bar" x="409" y="714" width="2" height="19" rx="2"/>
<text class="v" x="880" y="729">0.002</text>
<text x="0" y="757">tool:semgrep</text>
<rect class="bar" x="409" y="742" width="2" height="19" rx="2"/>
<text class="v" x="880" y="757">0.002</text>
<text x="0" y="785">tool:cppcheck</text>
<rect class="bar" x="409" y="770" width="2" height="19" rx="2"/>
<text class="v" x="880" y="785">0.002</text>
<text x="0" y="813">bks_tau_0_3</text>
<rect class="bar" x="409" y="798" width="2" height="19" rx="2"/>
<text class="v" x="880" y="813">0.002</text>
<text x="0" y="841">tool:codeql</text>
<rect class="bar" x="409" y="826" width="2" height="19" rx="2"/>
<text class="v" x="880" y="841">0.002</text>
<text x="0" y="869">naive_bayes_tau_0_4</text>
<rect class="bar" x="409" y="854" width="2" height="19" rx="2"/>
<text class="v" x="880" y="869">0.003</text>
<text x="0" y="897">tool:joern</text>
<rect class="bar" x="409" y="882" width="2" height="19" rx="2"/>
<text class="v" x="880" y="897">0.003</text>
<text x="0" y="925">naive_bayes_tau_0_3</text>
<rect class="bar" x="409" y="910" width="2" height="19" rx="2"/>
<text class="v" x="880" y="925">0.006</text>
<text x="0" y="953">xgboost_tau_0_7</text>
<rect class="bar" x="409" y="938" width="2" height="19" rx="2"/>
<text class="v" x="880" y="953">0.006</text>
<text x="0" y="981">random_forest_tau_0_7</text>
<rect class="bar" x="409" y="966" width="2" height="19" rx="2"/>
<text class="v" x="880" y="981">0.006</text>
<text x="0" y="1009">logistic_interactions_tau_0_7</text>
<rect class="bar" x="409" y="994" width="3" height="19" rx="2"/>
<text class="v" x="880" y="1009">0.007</text>
<text x="0" y="1037">traditional_2_of_6</text>
<rect class="bar" x="409" y="1022" width="3" height="19" rx="2"/>
<text class="v" x="880" y="1037">0.007</text>
<text x="0" y="1065">gradient_boosting_tau_0_7</text>
<rect class="bar" x="409" y="1050" width="3" height="19" rx="2"/>
<text class="v" x="880" y="1065">0.007</text>
<text x="0" y="1093">logistic_regression_tau_0_7</text>
<rect class="bar" x="409" y="1078" width="3" height="19" rx="2"/>
<text class="v" x="880" y="1093">0.007</text>
<text x="0" y="1121">decision_tree_tau_0_7</text>
<rect class="bar" x="409" y="1106" width="3" height="19" rx="2"/>
<text class="v" x="880" y="1121">0.007</text>
<text x="0" y="1149">decision_tree_tau_0_6</text>
<rect class="bar" x="409" y="1134" width="4" height="19" rx="2"/>
<text class="v" x="880" y="1149">0.009</text>
<text x="0" y="1177">random_forest_tau_0_6</text>
<rect class="bar" x="409" y="1162" width="5" height="19" rx="2"/>
<text class="v" x="880" y="1177">0.011</text>
<text x="0" y="1205">logistic_interactions_tau_0_6</text>
<rect class="bar" x="409" y="1190" width="5" height="19" rx="2"/>
<text class="v" x="880" y="1205">0.011</text>
<text x="0" y="1233">xgboost_tau_0_6</text>
<rect class="bar" x="409" y="1218" width="5" height="19" rx="2"/>
<text class="v" x="880" y="1233">0.012</text>
<text x="0" y="1261">logistic_regression_tau_0_6</text>
<rect class="bar" x="409" y="1246" width="5" height="19" rx="2"/>
<text class="v" x="880" y="1261">0.012</text>
<text x="0" y="1289">gradient_boosting_tau_0_6</text>
<rect class="bar" x="409" y="1274" width="5" height="19" rx="2"/>
<text class="v" x="880" y="1289">0.012</text>
<text x="0" y="1317">dst_yager_fire_specificity_silence_sensitivity_tau_0_9</text>
<rect class="bar" x="409" y="1302" width="8" height="19" rx="2"/>
<text class="v" x="880" y="1317">0.019</text>
<text x="0" y="1345">dst_pcr6_fire_specificity_silence_sensitivity_tau_0_9</text>
<rect class="bar" x="409" y="1330" width="9" height="19" rx="2"/>
<text class="v" x="880" y="1345">0.020</text>
<text x="0" y="1373">dst_dempster_fire_specificity_silence_sensitivity_tau_0_9</text>
<rect class="bar" x="409" y="1358" width="9" height="19" rx="2"/>
<text class="v" x="880" y="1373">0.021</text>
<text x="0" y="1401">bks_tau_0_2</text>
<rect class="bar" x="409" y="1386" width="54" height="19" rx="2"/>
<text class="v" x="880" y="1401">0.119</text>
<text x="0" y="1429">naive_bayes_tau_0_2</text>
<rect class="bar" x="409" y="1414" width="55" height="19" rx="2"/>
<text class="v" x="880" y="1429">0.120</text>
<text x="0" y="1457">tool:flawfinder</text>
<rect class="bar" x="409" y="1442" width="60" height="19" rx="2"/>
<text class="v" x="880" y="1457">0.131</text>
<text x="0" y="1485">weighted_fire_specificity_silence_sensitivity_tau_0_9</text>
<rect class="bar" x="409" y="1470" width="60" height="19" rx="2"/>
<text class="v" x="880" y="1485">0.132</text>
<text x="0" y="1513">weighted_fire_specificity_silence_sensitivity_tau_0_8</text>
<rect class="bar" x="409" y="1498" width="61" height="19" rx="2"/>
<text class="v" x="880" y="1513">0.132</text>
<text x="0" y="1541">dst_pcr6_fire_specificity_silence_sensitivity_tau_0_7</text>
<rect class="bar" x="409" y="1526" width="61" height="19" rx="2"/>
<text class="v" x="880" y="1541">0.133</text>
<text x="0" y="1569">dst_yager_fire_specificity_silence_sensitivity_tau_0_8</text>
<rect class="bar" x="409" y="1554" width="61" height="19" rx="2"/>
<text class="v" x="880" y="1569">0.133</text>
<text x="0" y="1597">dst_yager_fire_specificity_silence_sensitivity_tau_0_7</text>
<rect class="bar" x="409" y="1582" width="61" height="19" rx="2"/>
<text class="v" x="880" y="1597">0.133</text>
<text x="0" y="1625">weighted_fire_specificity_silence_sensitivity_tau_0_3</text>
<rect class="bar" x="409" y="1610" width="61" height="19" rx="2"/>
<text class="v" x="880" y="1625">0.133</text>
<text x="0" y="1653">weighted_fire_specificity_silence_sensitivity_tau_0_2</text>
<rect class="bar" x="409" y="1638" width="61" height="19" rx="2"/>
<text class="v" x="880" y="1653">0.133</text>
<text x="0" y="1681">dst_pcr6_fire_specificity_silence_sensitivity_tau_0_6</text>
<rect class="bar" x="409" y="1666" width="61" height="19" rx="2"/>
<text class="v" x="880" y="1681">0.133</text>
<text x="0" y="1709">dst_yager_fire_specificity_silence_sensitivity_tau_0_6</text>
<rect class="bar" x="409" y="1694" width="61" height="19" rx="2"/>
<text class="v" x="880" y="1709">0.133</text>
<text x="0" y="1737">dst_pcr6_fire_specificity_silence_sensitivity_tau_0_8</text>
<rect class="bar" x="409" y="1722" width="61" height="19" rx="2"/>
<text class="v" x="880" y="1737">0.133</text>
<text x="0" y="1765">weighted_fire_specificity_silence_sensitivity_tau_0_1</text>
<rect class="bar" x="409" y="1750" width="61" height="19" rx="2"/>
<text class="v" x="880" y="1765">0.133</text>
<text x="0" y="1793">weighted_fire_specificity_silence_sensitivity_tau_0_6</text>
<rect class="bar" x="409" y="1778" width="61" height="19" rx="2"/>
<text class="v" x="880" y="1793">0.133</text>
<text x="0" y="1821">weighted_fire_specificity_silence_sensitivity_tau_0_4</text>
<rect class="bar" x="409" y="1806" width="61" height="19" rx="2"/>
<text class="v" x="880" y="1821">0.133</text>
<text x="0" y="1849">dst_dempster_fire_specificity_silence_sensitivity_tau_0_8</text>
<rect class="bar" x="409" y="1834" width="61" height="19" rx="2"/>
<text class="v" x="880" y="1849">0.133</text>
<text x="0" y="1877">weighted_fire_specificity_silence_sensitivity_tau_0_7</text>
<rect class="bar" x="409" y="1862" width="61" height="19" rx="2"/>
<text class="v" x="880" y="1877">0.133</text>
<text x="0" y="1905">weighted_fire_specificity_silence_sensitivity_tau_0_5</text>
<rect class="bar" x="409" y="1890" width="61" height="19" rx="2"/>
<text class="v" x="880" y="1905">0.133</text>
<text x="0" y="1933">dst_dempster_fire_specificity_silence_sensitivity_tau_0_7</text>
<rect class="bar" x="409" y="1918" width="61" height="19" rx="2"/>
<text class="v" x="880" y="1933">0.133</text>
<text x="0" y="1961">dst_dempster_fire_specificity_silence_sensitivity_tau_0_6</text>
<rect class="bar" x="409" y="1946" width="61" height="19" rx="2"/>
<text class="v" x="880" y="1961">0.133</text>
<text x="0" y="1989">or_1_of_6</text>
<rect class="bar" x="409" y="1974" width="61" height="19" rx="2"/>
<text class="v" x="880" y="1989">0.133</text>
<text x="0" y="2017">dst_pcr6_fire_specificity_silence_sensitivity_tau_0_5</text>
<rect class="bar" x="409" y="2002" width="88" height="19" rx="2"/>
<text class="v" x="880" y="2017">0.192</text>
<text x="0" y="2045">dst_dempster_fire_specificity_silence_sensitivity_tau_0_5</text>
<rect class="bar" x="409" y="2030" width="88" height="19" rx="2"/>
<text class="v" x="880" y="2045">0.192</text>
<text x="0" y="2073">dst_yager_fire_specificity_silence_sensitivity_tau_0_5</text>
<rect class="bar" x="409" y="2058" width="88" height="19" rx="2"/>
<text class="v" x="880" y="2073">0.192</text>
<text x="0" y="2101">xgboost_tau_0_5</text>
<rect class="bar" x="409" y="2086" width="114" height="19" rx="2"/>
<text class="v" x="880" y="2101">0.249</text>
<text x="0" y="2129">gradient_boosting_tau_0_5</text>
<rect class="bar" x="409" y="2114" width="123" height="19" rx="2"/>
<text class="v" x="880" y="2129">0.268</text>
<text x="0" y="2157">logistic_regression_tau_0_5</text>
<rect class="bar" x="409" y="2142" width="126" height="19" rx="2"/>
<text class="v" x="880" y="2157">0.275</text>
<text x="0" y="2185">logistic_interactions_tau_0_5</text>
<rect class="bar" x="409" y="2170" width="127" height="19" rx="2"/>
<text class="v" x="880" y="2185">0.276</text>
<text x="0" y="2213">decision_tree_tau_0_5</text>
<rect class="bar" x="409" y="2198" width="130" height="19" rx="2"/>
<text class="v" x="880" y="2213">0.282</text>
<text x="0" y="2241">random_forest_tau_0_5</text>
<rect class="bar" x="409" y="2226" width="133" height="19" rx="2"/>
<text class="v" x="880" y="2241">0.290</text>
<text x="0" y="2269">bks_tau_0_1</text>
<rect class="bar" x="409" y="2254" width="204" height="19" rx="2"/>
<text class="v" x="880" y="2269">0.445</text>
<text x="0" y="2297">naive_bayes_tau_0_1</text>
<rect class="bar" x="409" y="2282" width="204" height="19" rx="2"/>
<text class="v" x="880" y="2297">0.445</text>
<text x="0" y="2325">dst_yager_fire_specificity_silence_sensitivity_tau_0_4</text>
<rect class="bar" x="409" y="2310" width="268" height="19" rx="2"/>
<text class="v" x="880" y="2325">0.582</text>
<text x="0" y="2353">dst_pcr6_fire_specificity_silence_sensitivity_tau_0_4</text>
<rect class="bar" x="409" y="2338" width="268" height="19" rx="2"/>
<text class="v" x="880" y="2353">0.582</text>
<text x="0" y="2381">dst_dempster_fire_specificity_silence_sensitivity_tau_0_4</text>
<rect class="bar" x="409" y="2366" width="268" height="19" rx="2"/>
<text class="v" x="880" y="2381">0.582</text>
<text x="0" y="2409">dst_dempster_fire_specificity_silence_sensitivity_tau_0_1</text>
<rect class="bar" x="409" y="2394" width="459" height="19" rx="2"/>
<text class="v" x="880" y="2409">0.997</text>
<text x="0" y="2437">dst_yager_fire_specificity_silence_sensitivity_tau_0_3</text>
<rect class="bar" x="409" y="2422" width="459" height="19" rx="2"/>
<text class="v" x="880" y="2437">0.997</text>
<text x="0" y="2465">dst_pcr6_fire_specificity_silence_sensitivity_tau_0_3</text>
<rect class="bar" x="409" y="2450" width="459" height="19" rx="2"/>
<text class="v" x="880" y="2465">0.997</text>
<text x="0" y="2493">dst_pcr6_fire_specificity_silence_sensitivity_tau_0_2</text>
<rect class="bar" x="409" y="2478" width="459" height="19" rx="2"/>
<text class="v" x="880" y="2493">0.997</text>
<text x="0" y="2521">dst_dempster_fire_specificity_silence_sensitivity_tau_0_3</text>
<rect class="bar" x="409" y="2506" width="459" height="19" rx="2"/>
<text class="v" x="880" y="2521">0.997</text>
<text x="0" y="2549">dst_dempster_fire_specificity_silence_sensitivity_tau_0_2</text>
<rect class="bar" x="409" y="2534" width="459" height="19" rx="2"/>
<text class="v" x="880" y="2549">0.997</text>
<text x="0" y="2577">dst_yager_fire_specificity_silence_sensitivity_tau_0_1</text>
<rect class="bar" x="409" y="2562" width="459" height="19" rx="2"/>
<text class="v" x="880" y="2577">0.997</text>
<text x="0" y="2605">dst_yager_fire_specificity_silence_sensitivity_tau_0_2</text>
<rect class="bar" x="409" y="2590" width="459" height="19" rx="2"/>
<text class="v" x="880" y="2605">0.997</text>
<text x="0" y="2633">dst_pcr6_fire_specificity_silence_sensitivity_tau_0_1</text>
<rect class="bar" x="409" y="2618" width="459" height="19" rx="2"/>
<text class="v" x="880" y="2633">0.997</text>
<text x="0" y="2661">gradient_boosting_tau_0_4</text>
<rect class="bar" x="409" y="2646" width="460" height="19" rx="2"/>
<text class="v" x="880" y="2661">0.998</text>
<text x="0" y="2689">random_forest_tau_0_4</text>
<rect class="bar" x="409" y="2674" width="460" height="19" rx="2"/>
<text class="v" x="880" y="2689">0.998</text>
<text x="0" y="2717">logistic_interactions_tau_0_4</text>
<rect class="bar" x="409" y="2702" width="460" height="19" rx="2"/>
<text class="v" x="880" y="2717">0.998</text>
<text x="0" y="2745">decision_tree_tau_0_4</text>
<rect class="bar" x="409" y="2730" width="460" height="19" rx="2"/>
<text class="v" x="880" y="2745">0.998</text>
<text x="0" y="2773">xgboost_tau_0_4</text>
<rect class="bar" x="409" y="2758" width="460" height="19" rx="2"/>
<text class="v" x="880" y="2773">0.998</text>
<text x="0" y="2801">logistic_regression_tau_0_4</text>
<rect class="bar" x="409" y="2786" width="460" height="19" rx="2"/>
<text class="v" x="880" y="2801">0.998</text>
<text x="0" y="2829">gradient_boosting_tau_0_3</text>
<rect class="bar" x="409" y="2814" width="460" height="19" rx="2"/>
<text class="v" x="880" y="2829">0.999</text>
<text x="0" y="2857">logistic_interactions_tau_0_3</text>
<rect class="bar" x="409" y="2842" width="460" height="19" rx="2"/>
<text class="v" x="880" y="2857">1.000</text>
<text x="0" y="2885">random_forest_tau_0_3</text>
<rect class="bar" x="409" y="2870" width="460" height="19" rx="2"/>
<text class="v" x="880" y="2885">1.000</text>
<text x="0" y="2913">decision_tree_tau_0_3</text>
<rect class="bar" x="409" y="2898" width="460" height="19" rx="2"/>
<text class="v" x="880" y="2913">1.000</text>
<text x="0" y="2941">logistic_regression_tau_0_3</text>
<rect class="bar" x="409" y="2926" width="460" height="19" rx="2"/>
<text class="v" x="880" y="2941">1.000</text>
<text x="0" y="2969">gradient_boosting_tau_0_2</text>
<rect class="bar" x="409" y="2954" width="460" height="19" rx="2"/>
<text class="v" x="880" y="2969">1.000</text>
<text x="0" y="2997">gradient_boosting_tau_0_1</text>
<rect class="bar" x="409" y="2982" width="460" height="19" rx="2"/>
<text class="v" x="880" y="2997">1.000</text>
<text x="0" y="3025">decision_tree_tau_0_2</text>
<rect class="bar" x="409" y="3010" width="460" height="19" rx="2"/>
<text class="v" x="880" y="3025">1.000</text>
<text x="0" y="3053">decision_tree_tau_0_1</text>
<rect class="bar" x="409" y="3038" width="460" height="19" rx="2"/>
<text class="v" x="880" y="3053">1.000</text>
<text x="0" y="3081">random_forest_tau_0_2</text>
<rect class="bar" x="409" y="3066" width="460" height="19" rx="2"/>
<text class="v" x="880" y="3081">1.000</text>
<text x="0" y="3109">xgboost_tau_0_3</text>
<rect class="bar" x="409" y="3094" width="460" height="19" rx="2"/>
<text class="v" x="880" y="3109">1.000</text>
<text x="0" y="3137">logistic_interactions_tau_0_2</text>
<rect class="bar" x="409" y="3122" width="460" height="19" rx="2"/>
<text class="v" x="880" y="3137">1.000</text>
<text x="0" y="3165">random_forest_tau_0_1</text>
<rect class="bar" x="409" y="3150" width="460" height="19" rx="2"/>
<text class="v" x="880" y="3165">1.000</text>
<text x="0" y="3193">logistic_regression_tau_0_2</text>
<rect class="bar" x="409" y="3178" width="460" height="19" rx="2"/>
<text class="v" x="880" y="3193">1.000</text>
<text x="0" y="3221">xgboost_tau_0_2</text>
<rect class="bar" x="409" y="3206" width="460" height="19" rx="2"/>
<text class="v" x="880" y="3221">1.000</text>
<text x="0" y="3249">logistic_interactions_tau_0_1</text>
<rect class="bar" x="409" y="3234" width="460" height="19" rx="2"/>
<text class="v" x="880" y="3249">1.000</text>
<text x="0" y="3277">logistic_regression_tau_0_1</text>
<rect class="bar" x="409" y="3262" width="460" height="19" rx="2"/>
<text class="v" x="880" y="3277">1.000</text>
<text x="0" y="3305">xgboost_tau_0_1</text>
<rect class="bar" x="409" y="3290" width="460" height="19" rx="2"/>
<text class="v" x="880" y="3305">1.000</text>
</svg>