<svg xmlns="http://www.w3.org/2000/svg" width="960" height="3330" viewBox="0 0 960 3330">
<style>text{font-family:Arial,sans-serif;font-size:12px}.t{font-size:16px;font-weight:700}.ax{stroke:#888;stroke-width:1}.bar{fill:#3568a8}.v{fill:#222}</style>
<text class="t" x="0" y="20">precision (support-weighted)</text>
<line class="ax" x1="409" y1="34" x2="409" y2="3320"/>
<text x="0" y="57">random_forest_tau_0_8</text>
<rect class="bar" x="409" y="42" width="207" height="19" rx="2"/>
<text class="v" x="880" y="57">0.450</text>
<text x="0" y="85">bks_tau_0_7</text>
<rect class="bar" x="409" y="70" width="190" height="19" rx="2"/>
<text class="v" x="880" y="85">0.413</text>
<text x="0" y="113">bks_tau_0_6</text>
<rect class="bar" x="409" y="98" width="176" height="19" rx="2"/>
<text class="v" x="880" y="113">0.384</text>
<text x="0" y="141">naive_bayes_tau_0_8</text>
<rect class="bar" x="409" y="126" width="176" height="19" rx="2"/>
<text class="v" x="880" y="141">0.382</text>
<text x="0" y="169">gradient_boosting_tau_0_8</text>
<rect class="bar" x="409" y="154" width="174" height="19" rx="2"/>
<text class="v" x="880" y="169">0.379</text>
<text x="0" y="197">decision_tree_tau_0_8</text>
<rect class="bar" x="409" y="182" width="173" height="19" rx="2"/>
<text class="v" x="880" y="197">0.376</text>
<text x="0" y="225">xgboost_tau_0_8</text>
<rect class="bar" x="409" y="210" width="173" height="19" rx="2"/>
<text class="v" x="880" y="225">0.376</text>
<text x="0" y="253">logistic_interactions_tau_0_9</text>
<rect class="bar" x="409" y="238" width="168" height="19" rx="2"/>
<text class="v" x="880" y="253">0.365</text>
<text x="0" y="281">decision_tree_tau_0_9</text>
<rect class="bar" x="409" y="266" width="167" height="19" rx="2"/>
<text class="v" x="880" y="281">0.363</text>
<text x="0" y="309">bks_tau_0_5</text>
<rect class="bar" x="409" y="294" width="166" height="19" rx="2"/>
<text class="v" x="880" y="309">0.360</text>
<text x="0" y="337">bks_tau_0_4</text>
<rect class="bar" x="409" y="322" width="165" height="19" rx="2"/>
<text class="v" x="880" y="337">0.358</text>
<text x="0" y="365">logistic_interactions_tau_0_8</text>
<rect class="bar" x="409" y="350" width="162" height="19" rx="2"/>
<text class="v" x="880" y="365">0.353</text>
<text x="0" y="393">random_forest_tau_0_7</text>
<rect class="bar" x="409" y="378" width="160" height="19" rx="2"/>
<text class="v" x="880" y="393">0.349</text>
<text x="0" y="421">gradient_boosting_tau_0_9</text>
<rect class="bar" x="409" y="406" width="160" height="19" rx="2"/>
<text class="v" x="880" y="421">0.347</text>
<text x="0" y="449">logistic_interactions_tau_0_7</text>
<rect class="bar" x="409" y="434" width="149" height="19" rx="2"/>
<text class="v" x="880" y="449">0.325</text>
<text x="0" y="477">logistic_regression_tau_0_9</text>
<rect class="bar" x="409" y="462" width="143" height="19" rx="2"/>
<text class="v" x="880" y="477">0.311</text>
<text x="0" y="505">bks_tau_0_3</text>
<rect class="bar" x="409" y="490" width="137" height="19" rx="2"/>
<text class="v" x="880" y="505">0.298</text>
<text x="0" y="533">random_forest_tau_0_9</text>
<rect class="bar" x="409" y="518" width="136" height="19" rx="2"/>
<text class="v" x="880" y="533">0.296</text>
<text x="0" y="561">gradient_boosting_tau_0_7</text>
<rect class="bar" x="409" y="546" width="131" height="19" rx="2"/>
<text class="v" x="880" y="561">0.285</text>
<text x="0" y="589">xgboost_tau_0_7</text>
<rect class="bar" x="409" y="574" width="131" height="19" rx="2"/>
<text class="v" x="880" y="589">0.285</text>
<text x="0" y="617">logistic_regression_tau_0_7</text>
<rect class="bar" x="409" y="602" width="127" height="19" rx="2"/>
<text class="v" x="880" y="617">0.277</text>
<text x="0" y="645">tool:ikos</text>
<rect class="bar" x="409" y="630" width="127" height="19" rx="2"/>
<text class="v" x="880" y="645">0.276</text>
<text x="0" y="673">naive_bayes_tau_0_7</text>
<rect class="bar" x="409" y="658" width="122" height="19" rx="2"/>
<text class="v" x="880" y="673">0.265</text>
<text x="0" y="701">xgboost_tau_0_9</text>
<rect class="bar" x="409" y="686" width="122" height="19" rx="2"/>
<text class="v" x="880" y="701">0.265</text>
<text x="0" y="729">decision_tree_tau_0_7</text>
<rect class="bar" x="409" y="714" width="120" height="19" rx="2"/>
<text class="v" x="880" y="729">0.262</text>
<text x="0" y="757">logistic_regression_tau_0_8</text>
<rect class="bar" x="409" y="742" width="114" height="19" rx="2"/>
<text class="v" x="880" y="757">0.248</text>
<text x="0" y="785">naive_bayes_tau_0_6</text>
<rect class="bar" x="409" y="770" width="113" height="19" rx="2"/>
<text class="v" x="880" y="785">0.246</text>
<text x="0" y="813">decision_tree_tau_0_6</text>
<rect class="bar" x="409" y="798" width="111" height="19" rx="2"/>
<text class="v" x="880" y="813">0.242</text>
<text x="0" y="841">naive_bayes_tau_0_5</text>
<rect class="bar" x="409" y="826" width="110" height="19" rx="2"/>
<text class="v" x="880" y="841">0.240</text>
<text x="0" y="869">naive_bayes_tau_0_4</text>
<rect class="bar" x="409" y="854" width="109" height="19" rx="2"/>
<text class="v" x="880" y="869">0.238</text>
<text x="0" y="897">logistic_interactions_tau_0_6</text>
<rect class="bar" x="409" y="882" width="94" height="19" rx="2"/>
<text class="v" x="880" y="897">0.206</text>
<text x="0" y="925">random_forest_tau_0_6</text>
<rect class="bar" x="409" y="910" width="94" height="19" rx="2"/>
<text class="v" x="880" y="925">0.206</text>
<text x="0" y="953">xgboost_tau_0_6</text>
<rect class="bar" x="409" y="938" width="93" height="19" rx="2"/>
<text class="v" x="880" y="953">0.202</text>
<text x="0" y="981">gradient_boosting_tau_0_6</text>
<rect class="bar" x="409" y="966" width="92" height="19" rx="2"/>
<text class="v" x="880" y="981">0.202</text>
<text x="0" y="1009">logistic_regression_tau_0_6</text>
<rect class="bar" x="409" y="994" width="92" height="19" rx="2"/>
<text class="v" x="880" y="1009">0.201</text>
<text x="0" y="1037">naive_bayes_tau_0_3</text>
<rect class="bar" x="409" y="1022" width="89" height="19" rx="2"/>
<text class="v" x="880" y="1037">0.195</text>
<text x="0" y="1065">tool:cppcheck</text>
<rect class="bar" x="409" y="1050" width="88" height="19" rx="2"/>
<text class="v" x="880" y="1065">0.192</text>
<text x="0" y="1093">traditional_3_of_6</text>
<rect class="bar" x="409" y="1078" width="86" height="19" rx="2"/>
<text class="v" x="880" y="1093">0.188</text>
<text x="0" y="1121">tool:codeql</text>
<rect class="bar" x="409" y="1106" width="83" height="19" rx="2"/>
<text class="v" x="880" y="1121">0.181</text>
<text x="0" y="1149">dst_dempster_fire_specificity_silence_sensitivity_tau_0_9</text>
<rect class="bar" x="409" y="1134" width="82" height="19" rx="2"/>
<text class="v" x="880" y="1149">0.179</text>
<text x="0" y="1177">naive_bayes_tau_0_9</text>
<rect class="bar" x="409" y="1162" width="81" height="19" rx="2"/>
<text class="v" x="880" y="1177">0.178</text>
<text x="0" y="1205">dst_pcr6_fire_specificity_silence_sensitivity_tau_0_9</text>
<rect class="bar" x="409" y="1190" width="79" height="19" rx="2"/>
<text class="v" x="880" y="1205">0.172</text>
<text x="0" y="1233">dst_yager_fire_specificity_silence_sensitivity_tau_0_9</text>
<rect class="bar" x="409" y="1218" width="74" height="19" rx="2"/>
<text class="v" x="880" y="1233">0.162</text>
<text x="0" y="1261">traditional_2_of_6</text>
<rect class="bar" x="409" y="1246" width="68" height="19" rx="2"/>
<text class="v" x="880" y="1261">0.148</text>
<text x="0" y="1289">or_1_of_6</text>
<rect class="bar" x="409" y="1274" width="65" height="19" rx="2"/>
<text class="v" x="880" y="1289">0.142</text>
<text x="0" y="1317">tool:semgrep</text>
<rect class="bar" x="409" y="1302" width="65" height="19" rx="2"/>
<text class="v" x="880" y="1317">0.141</text>
<text x="0" y="1345">bks_tau_0_2</text>
<rect class="bar" x="409" y="1330" width="64" height="19" rx="2"/>
<text class="v" x="880" y="1345">0.141</text>
<text x="0" y="1373">random_forest_tau_0_5</text>
<rect class="bar" x="409" y="1358" width="64" height="19" rx="2"/>
<text class="v" x="880" y="1373">0.140</text>
<text x="0" y="1401">logistic_interactions_tau_0_5</text>
<rect class="bar" x="409" y="1386" width="64" height="19" rx="2"/>
<text class="v" x="880" y="1401">0.140</text>
<text x="0" y="1429">decision_tree_tau_0_5</text>
<rect class="bar" x="409" y="1414" width="64" height="19" rx="2"/>
<text class="v" x="880" y="1429">0.140</text>
<text x="0" y="1457">gradient_boosting_tau_0_5</text>
<rect class="bar" x="409" y="1442" width="64" height="19" rx="2"/>
<text class="v" x="880" y="1457">0.140</text>
<text x="0" y="1485">logistic_regression_tau_0_5</text>
<rect class="bar" x="409" y="1470" width="64" height="19" rx="2"/>
<text class="v" x="880" y="1485">0.140</text>
<text x="0" y="1513">naive_bayes_tau_0_2</text>
<rect class="bar" x="409" y="1498" width="64" height="19" rx="2"/>
<text class="v" x="880" y="1513">0.140</text>
<text x="0" y="1541">weighted_fire_specificity_silence_sensitivity_tau_0_6</text>
<rect class="bar" x="409" y="1526" width="64" height="19" rx="2"/>
<text class="v" x="880" y="1541">0.139</text>
<text x="0" y="1569">weighted_fire_specificity_silence_sensitivity_tau_0_5</text>
<rect class="bar" x="409" y="1554" width="64" height="19" rx="2"/>
<text class="v" x="880" y="1569">0.139</text>
<text x="0" y="1597">weighted_fire_specificity_silence_sensitivity_tau_0_2</text>
<rect class="bar" x="409" y="1582" width="64" height="19" rx="2"/>
<text class="v" x="880" y="1597">0.139</text>
<text x="0" y="1625">weighted_fire_specificity_silence_sensitivity_tau_0_1</text>
<rect class="bar" x="409" y="1610" width="64" height="19" rx="2"/>
<text class="v" x="880" y="1625">0.139</text>
<text x="0" y="1653">dst_dempster_fire_specificity_silence_sensitivity_tau_0_6</text>
<rect class="bar" x="409" y="1638" width="64" height="19" rx="2"/>
<text class="v" x="880" y="1653">0.139</text>
<text x="0" y="1681">dst_dempster_fire_specificity_silence_sensitivity_tau_0_8</text>
<rect class="bar" x="409" y="1666" width="64" height="19" rx="2"/>
<text class="v" x="880" y="1681">0.139</text>
<text x="0" y="1709">weighted_fire_specificity_silence_sensitivity_tau_0_3</text>
<rect class="bar" x="409" y="1694" width="64" height="19" rx="2"/>
<text class="v" x="880" y="1709">0.139</text>
<text x="0" y="1737">weighted_fire_specificity_silence_sensitivity_tau_0_4</text>
<rect class="bar" x="409" y="1722" width="64" height="19" rx="2"/>
<text class="v" x="880" y="1737">0.139</text>
<text x="0" y="1765">weighted_fire_specificity_silence_sensitivity_tau_0_7</text>
<rect class="bar" x="409" y="1750" width="64" height="19" rx="2"/>
<text class="v" x="880" y="1765">0.139</text>
<text x="0" y="1793">dst_pcr6_fire_specificity_silence_sensitivity_tau_0_6</text>
<rect class="bar" x="409" y="1778" width="64" height="19" rx="2"/>
<text class="v" x="880" y="1793">0.139</text>
<text x="0" y="1821">dst_pcr6_fire_specificity_silence_sensitivity_tau_0_7</text>
<rect class="bar" x="409" y="1806" width="64" height="19" rx="2"/>
<text class="v" x="880" y="1821">0.139</text>
<text x="0" y="1849">dst_pcr6_fire_specificity_silence_sensitivity_tau_0_8</text>
<rect class="bar" x="409" y="1834" width="64" height="19" rx="2"/>
<text class="v" x="880" y="1849">0.139</text>
<text x="0" y="1877">dst_dempster_fire_specificity_silence_sensitivity_tau_0_7</text>
<rect class="bar" x="409" y="1862" width="64" height="19" rx="2"/>
<text class="v" x="880" y="1877">0.139</text>
<text x="0" y="1905">dst_yager_fire_specificity_silence_sensitivity_tau_0_8</text>
<rect class="bar" x="409" y="1890" width="64" height="19" rx="2"/>
<text class="v" x="880" y="1905">0.139</text>
<text x="0" y="1933">dst_yager_fire_specificity_silence_sensitivity_tau_0_6</text>
<rect class="bar" x="409" y="1918" width="64" height="19" rx="2"/>
<text class="v" x="880" y="1933">0.139</text>
<text x="0" y="1961">dst_yager_fire_specificity_silence_sensitivity_tau_0_7</text>
<rect class="bar" x="409" y="1946" width="64" height="19" rx="2"/>
<text class="v" x="880" y="1961">0.139</text>
<text x="0" y="1989">xgboost_tau_0_5</text>
<rect class="bar" x="409" y="1974" width="64" height="19" rx="2"/>
<text class="v" x="880" y="1989">0.139</text>
<text x="0" y="2017">weighted_fire_specificity_silence_sensitivity_tau_0_9</text>
<rect class="bar" x="409" y="2002" width="64" height="19" rx="2"/>
<text class="v" x="880" y="2017">0.139</text>
<text x="0" y="2045">dst_pcr6_fire_specificity_silence_sensitivity_tau_0_5</text>
<rect class="bar" x="409" y="2030" width="63" height="19" rx="2"/>
<text class="v" x="880" y="2045">0.139</text>
<text x="0" y="2073">dst_dempster_fire_specificity_silence_sensitivity_tau_0_5</text>
<rect class="bar" x="409" y="2058" width="63" height="19" rx="2"/>
<text class="v" x="880" y="2073">0.139</text>
<text x="0" y="2101">dst_yager_fire_specificity_silence_sensitivity_tau_0_5</text>
<rect class="bar" x="409" y="2086" width="63" height="19" rx="2"/>
<text class="v" x="880" y="2101">0.139</text>
<text x="0" y="2129">weighted_fire_specificity_silence_sensitivity_tau_0_8</text>
<rect class="bar" x="409" y="2114" width="63" height="19" rx="2"/>
<text class="v" x="880" y="2129">0.138</text>
<text x="0" y="2157">dst_yager_fire_specificity_silence_sensitivity_tau_0_4</text>
<rect class="bar" x="409" y="2142" width="60" height="19" rx="2"/>
<text class="v" x="880" y="2157">0.131</text>
<text x="0" y="2185">dst_pcr6_fire_specificity_silence_sensitivity_tau_0_4</text>
<rect class="bar" x="409" y="2170" width="60" height="19" rx="2"/>
<text class="v" x="880" y="2185">0.131</text>
<text x="0" y="2213">dst_dempster_fire_specificity_silence_sensitivity_tau_0_4</text>
<rect class="bar" x="409" y="2198" width="60" height="19" rx="2"/>
<text class="v" x="880" y="2213">0.131</text>
<text x="0" y="2241">tool:flawfinder</text>
<rect class="bar" x="409" y="2226" width="59" height="19" rx="2"/>
<text class="v" x="880" y="2241">0.129</text>
<text x="0" y="2269">bks_tau_0_1</text>
<rect class="bar" x="409" y="2254" width="58" height="19" rx="2"/>
<text class="v" x="880" y="2269">0.127</text>
<text x="0" y="2297">naive_bayes_tau_0_1</text>
<rect class="bar" x="409" y="2282" width="57" height="19" rx="2"/>
<text class="v" x="880" y="2297">0.125</text>
<text x="0" y="2325">tool:joern</text>
<rect class="bar" x="409" y="2310" width="48" height="19" rx="2"/>
<text class="v" x="880" y="2325">0.105</text>
<text x="0" y="2353">logistic_interactions_tau_0_4</text>
<rect class="bar" x="409" y="2338" width="42" height="19" rx="2"/>
<text class="v" x="880" y="2353">0.092</text>
<text x="0" y="2381">random_forest_tau_0_4</text>
<rect class="bar" x="409" y="2366" width="42" height="19" rx="2"/>
<text class="v" x="880" y="2381">0.092</text>
<text x="0" y="2409">xgboost_tau_0_4</text>
<rect class="bar" x="409" y="2394" width="42" height="19" rx="2"/>
<text class="v" x="880" y="2409">0.092</text>
<text x="0" y="2437">logistic_regression_tau_0_4</text>
<rect class="bar" x="409" y="2422" width="42" height="19" rx="2"/>
<text class="v" x="880" y="2437">0.092</text>
<text x="0" y="2465">decision_tree_tau_0_4</text>
<rect class="bar" x="409" y="2450" width="42" height="19" rx="2"/>
<text class="v" x="880" y="2465">0.092</text>
<text x="0" y="2493">gradient_boosting_tau_0_4</text>
<rect class="bar" x="409" y="2478" width="42" height="19" rx="2"/>
<text class="v" x="880" y="2493">0.092</text>
<text x="0" y="2521">xgboost_tau_0_1</text>
<rect class="bar" x="409" y="2506" width="42" height="19" rx="2"/>
<text class="v" x="880" y="2521">0.092</text>
<text x="0" y="2549">logistic_interactions_tau_0_3</text>
<rect class="bar" x="409" y="2534" width="42" height="19" rx="2"/>
<text class="v" x="880" y="2549">0.092</text>
<text x="0" y="2577">logistic_regression_tau_0_1</text>
<rect class="bar" x="409" y="2562" width="42" height="19" rx="2"/>
<text class="v" x="880" y="2577">0.092</text>
<text x="0" y="2605">logistic_interactions_tau_0_1</text>
<rect class="bar" x="409" y="2590" width="42" height="19" rx="2"/>
<text class="v" x="880" y="2605">0.092</text>
<text x="0" y="2633">logistic_interactions_tau_0_2</text>
<rect class="bar" x="409" y="2618" width="42" height="19" rx="2"/>
<text class="v" x="880" y="2633">0.092</text>
<text x="0" y="2661">random_forest_tau_0_3</text>
<rect class="bar" x="409" y="2646" width="42" height="19" rx="2"/>
<text class="v" x="880" y="2661">0.092</text>
<text x="0" y="2689">logistic_regression_tau_0_3</text>
<rect class="bar" x="409" y="2674" width="42" height="19" rx="2"/>
<text class="v" x="880" y="2689">0.092</text>
<text x="0" y="2717">xgboost_tau_0_2</text>
<rect class="bar" x="409" y="2702" width="42" height="19" rx="2"/>
<text class="v" x="880" y="2717">0.092</text>
<text x="0" y="2745">gradient_boosting_tau_0_3</text>
<rect class="bar" x="409" y="2730" width="42" height="19" rx="2"/>
<text class="v" x="880" y="2745">0.092</text>
<text x="0" y="2773">decision_tree_tau_0_3</text>
<rect class="bar" x="409" y="2758" width="42" height="19" rx="2"/>
<text class="v" x="880" y="2773">0.092</text>
<text x="0" y="2801">logistic_regression_tau_0_2</text>
<rect class="bar" x="409" y="2786" width="42" height="19" rx="2"/>
<text class="v" x="880" y="2801">0.092</text>
<text x="0" y="2829">xgboost_tau_0_3</text>
<rect class="bar" x="409" y="2814" width="42" height="19" rx="2"/>
<text class="v" x="880" y="2829">0.092</text>
<text x="0" y="2857">gradient_boosting_tau_0_2</text>
<rect class="bar" x="409" y="2842" width="42" height="19" rx="2"/>
<text class="v" x="880" y="2857">0.092</text>
<text x="0" y="2885">random_forest_tau_0_1</text>
<rect class="bar" x="409" y="2870" width="42" height="19" rx="2"/>
<text class="v" x="880" y="2885">0.092</text>
<text x="0" y="2913">random_forest_tau_0_2</text>
<rect class="bar" x="409" y="2898" width="42" height="19" rx="2"/>
<text class="v" x="880" y="2913">0.092</text>
<text x="0" y="2941">gradient_boosting_tau_0_1</text>
<rect class="bar" x="409" y="2926" width="42" height="19" rx="2"/>
<text class="v" x="880" y="2941">0.092</text>
<text x="0" y="2969">decision_tree_tau_0_1</text>
<rect class="bar" x="409" y="2954" width="42" height="19" rx="2"/>
<text class="v" x="880" y="2969">0.092</text>
<text x="0" y="2997">decision_tree_tau_0_2</text>
<rect class="bar" x="409" y="2982" width="42" height="19" rx="2"/>
<text class="v" x="880" y="2997">0.092</text>
<text x="0" y="3025">dst_yager_fire_specificity_silence_sensitivity_tau_0_2</text>
<rect class="bar" x="409" y="3010" width="42" height="19" rx="2"/>
<text class="v" x="880" y="3025">0.092</text>
<text x="0" y="3053">dst_dempster_fire_specificity_silence_sensitivity_tau_0_2</text>
<rect class="bar" x="409" y="3038" width="42" height="19" rx="2"/>
<text class="v" x="880" y="3053">0.092</text>
<text x="0" y="3081">dst_dempster_fire_specificity_silence_sensitivity_tau_0_3</text>
<rect class="bar" x="409" y="3066" width="42" height="19" rx="2"/>
<text class="v" x="880" y="3081">0.092</text>
<text x="0" y="3109">dst_dempster_fire_specificity_silence_sensitivity_tau_0_1</text>
<rect class="bar" x="409" y="3094" width="42" height="19" rx="2"/>
<text class="v" x="880" y="3109">0.092</text>
<text x="0" y="3137">dst_yager_fire_specificity_silence_sensitivity_tau_0_3</text>
<rect class="bar" x="409" y="3122" width="42" height="19" rx="2"/>
<text class="v" x="880" y="3137">0.092</text>
<text x="0" y="3165">dst_pcr6_fire_specificity_silence_sensitivity_tau_0_3</text>
<rect class="bar" x="409" y="3150" width="42" height="19" rx="2"/>
<text class="v" x="880" y="3165">0.092</text>
<text x="0" y="3193">dst_yager_fire_specificity_silence_sensitivity_tau_0_1</text>
<rect class="bar" x="409" y="3178" width="42" height="19" rx="2"/>
<text class="v" x="880" y="3193">0.092</text>
<text x="0" y="3221">dst_pcr6_fire_specificity_silence_sensitivity_tau_0_2</text>
<rect class="bar" x="409" y="3206" width="42" height="19" rx="2"/>
<text class="v" x="880" y="3221">0.092</text>
<text x="0" y="3249">dst_pcr6_fire_specificity_silence_sensitivity_tau_0_1</text>
<rect class="bar" x="409" y="3234" width="42" height="19" rx="2"/>
<text class="v" x="880" y="3249">0.092</text>
<text x="0" y="3277">bks_tau_0_8</text>
<rect class="bar" x="409" y="3262" width="16" height="19" rx="2"/>
<text class="v" x="880" y="3277">0.035</text>
<text x="0" y="3305">bks_tau_0_9</text>
<rect class="bar" x="409" y="3290" width="2" height="19" rx="2"/>
<text class="v" x="880" y="3305">0.000</text>
</svg>